<?xml version="1.0" encoding="utf-8"?>
<!-- Generator: Adobe Illustrator 16.0.0, SVG Export Plug-In . SVG Version: 6.00 Build 0)  -->
<!DOCTYPE svg PUBLIC "-//W3C//DTD SVG 1.0//EN" "http://www.w3.org/TR/2001/REC-SVG-20010904/DTD/svg10.dtd">
<svg version="1.0" id="Layer_1" xmlns="http://www.w3.org/2000/svg" xmlns:xlink="http://www.w3.org/1999/xlink" x="0px" y="0px"
	 width="800px" height="800px" viewBox="0 0 800 800" enable-background="new 0 0 800 800" xml:space="preserve">
<g id="g20">
	<path id="path4" fill="#551A8B" d="M411.318,362.548c-31.126,0.499-57.926,26.799-59.922,58.425
		c-1.832,31.793,23.47,60.09,56.428,63.419c33.124,3.329,59.922-22.97,59.922-58.425
		C467.746,390.346,442.445,362.049,411.318,362.548z M433.624,428.296c-1.332,16.479-11.652,25.469-18.477,26.135
		c-17.145,1.996-31.793-13.483-30.793-33.291c0.998-19.808,8.988-32.126,25.134-32.459
		C425.634,388.349,435.455,406.825,433.624,428.296z"/>
	<path id="path6" fill="#551A8B" d="M533.662,365.711c-31.127-0.5-56.428,27.797-56.428,63.418s26.799,61.754,59.923,58.425
		s58.425-31.625,56.428-63.418C591.754,392.51,564.955,366.377,533.662,365.711z M529.833,457.76
		c-6.824-0.833-16.979-9.821-18.476-26.134c-1.831-21.472,7.99-39.949,24.136-39.615c16.146,0.332,24.136,12.65,25.134,32.458
		C561.626,444.11,546.979,459.756,529.833,457.76z"/>
	<polygon id="polygon8" fill="#551A8B" points="171.126,336.082 137.67,323.265 72.42,385.519 72.42,307.785 33.803,317.605 
		33.803,500.205 72.42,501.535 72.087,437.619 95.89,414.647 121.024,501.535 155.147,501.535 123.688,388.182 	"/>
	<path id="path10" fill="#551A8B" d="M277.157,357.055l-0.666-81.895l-32.958,8.655l5.328,202.407l32.458,1.166l-1.831-104.533
		c7.158-3.163,30.627-9.654,31.46,16.146l3.163,36.787l2.164,51.766h33.956l-12.817-89.385
		C332.253,345.902,313.111,345.736,277.157,357.055z"/>
	<polygon id="polygon12" fill="#551A8B" points="724.917,488.553 715.43,510.858 735.736,524.84 755.711,513.022 747.221,488.553 	
		"/>
	<path id="path14" fill="#551A8B" d="M638.694,307.785l-25.8-10.653v53.432l-28.797-0.999l5.493,37.951h23.304l1.664,90.385
		c0,0-3.662,32.458,45.941,25.134c0,0,15.479-4.66,14.98-15.48v-35.62c0,0-10.487,6.159-21.805,6.159
		c-11.319,0-11.486-5.493-11.486-5.493l-2.996-69.911l36.121-1.997v-23.138l-37.12-2.496L638.694,307.785z"/>
	<polygon id="polygon16" fill="#551A8B" points="766.197,308.117 697.951,295.135 739.897,475.736 	"/>
	<path id="path18" fill="#551A8B" d="M162.97,358.221l8.989,23.636c22.47-13.482,35.121,0,35.121,0l-0.167,15.147
		c-66.914,11.817-49.935,73.738-49.935,73.738c6.824,24.303,28.796,23.47,28.796,23.47h50.103l0.998-112.688
		C229.052,329.091,162.97,358.221,162.97,358.221z M206.914,472.573c0,0-24.301,5.826-26.965-17.811c0,0,0.5-36.62,27.798-32.625
		L206.914,472.573z"/>
</g>
</svg>
