<?xml version="1.0" encoding="utf-8"?><!-- Generator: Adobe Illustrator 16.0.0, SVG Export Plug-In . SVG Version: 6.00 Build 0)  --><!DOCTYPE svg PUBLIC "-//W3C//DTD SVG 1.0//EN" "http://www.w3.org/TR/2001/REC-SVG-20010904/DTD/svg10.dtd"><svg version="1.0" id="Layer_1" xmlns="http://www.w3.org/2000/svg" xmlns:xlink="http://www.w3.org/1999/xlink" x="0px" y="0px" width="800px" height="800px" viewBox="0 0 800 800" enable-background="new 0 0 800 800" xml:space="preserve"><g id="g20"><path id="path4" fill="#551A8B" d="m411.32 362.55c-31.13.5-57.93 26.8-59.92 58.42c-1.84 31.8 23.47 60.09 56.42 63.42c33.13 3.33 59.93-22.97 59.93-58.42c0-35.62-25.31-63.92-56.43-63.42zm22.3 65.75c-1.33 16.47-11.65 25.46-18.47 26.13c-17.15 2-31.8-13.48-30.8-33.29c1-19.81 8.99-32.13 25.14-32.46c16.14-.33 25.96 18.14 24.13 39.62z"/><path id="path6" fill="#551A8B" d="m533.66 365.71c-31.12-.5-56.43 27.8-56.43 63.42s26.8 61.75 59.93 58.42s58.42-31.62 56.43-63.41c-1.84-31.63-28.63-57.76-59.93-58.43zm-3.83 92.05c-6.82-.83-16.98-9.82-18.47-26.13c-1.83-21.48 7.99-39.95 24.13-39.62c16.15.33 24.14 12.65 25.14 32.46c1 19.64-13.65 35.29-30.8 33.29z"/><polygon id="polygon8" fill="#551A8B" points="171.126,336.082 137.67,323.265 72.42,385.519 72.42,307.785 33.803,317.605 
		33.803,500.205 72.42,501.535 72.087,437.619 95.89,414.647 121.024,501.535 155.147,501.535 123.688,388.182 	"/><path id="path10" fill="#551A8B" d="m277.16 357.06l-.67-81.9l-32.96 8.65l5.33 202.41l32.46 1.17l-1.83-104.54c7.16-3.16 30.62-9.65 31.46 16.15l3.16 36.79l2.16 51.76h33.96l-12.82-89.38c-5.16-52.27-24.3-52.43-60.25-41.12z"/><polygon id="polygon12" fill="#551A8B" points="724.917,488.553 715.43,510.858 735.736,524.84 755.711,513.022 747.221,488.553 	
		"/><path id="path14" fill="#551A8B" d="m638.69 307.79l-25.8-10.66v53.43l-28.79-.99l5.49 37.95h23.3l1.67 90.38s-3.66 32.46 45.94 25.14s15.48-4.66 14.98-15.48v-35.62s-10.49 6.15-21.81 6.15c-11.31 0-11.48-5.49-11.48-5.49l-3-69.91l36.12-2v-23.14l-37.12-2.49l.5-47.27z"/><polygon id="polygon16" fill="#551A8B" points="766.197,308.117 697.951,295.135 739.897,475.736 	"/><path id="path18" fill="#551A8B" d="m162.97 358.22l8.99 23.64c22.47-13.48 35.12 0 35.12 0l-.17 15.14c-66.91 11.82-49.93 73.74-49.93 73.74c6.82 24.31 28.79 23.47 28.79 23.47h50.11l1-112.69c-7.83-52.43-73.91-23.3-73.91-23.3zm43.94 114.35s-24.3 5.83-26.96-17.81s.5-36.62 27.8-32.62l-.84 50.43z"/></g></svg>