<?xml version="1.0" encoding="UTF-8"?>
<svg xmlns="http://www.w3.org/2000/svg" xmlns:xlink="http://www.w3.org/1999/xlink" width="674.51pt" height="208.44pt" viewBox="0 0 674.51 208.44" version="1.1">
<defs>
<clipPath id="clip1">
  <path d="M 98 120 L 151.199219 120 L 151.199219 191.539063 L 98 191.539063 Z M 98 120 "/>
</clipPath>
<clipPath id="clip2">
  <path d="M 46.199219 0.0390625 L 99 0.0390625 L 99 121 L 46.199219 121 Z M 46.199219 0.0390625 "/>
</clipPath>
<clipPath id="clip3">
  <path d="M 46.199219 120 L 99 120 L 99 190 L 46.199219 190 Z M 46.199219 120 "/>
</clipPath>
<clipPath id="clip4">
  <path d="M 265 14 L 674.511719 14 L 674.511719 208.441406 L 265 208.441406 Z M 265 14 "/>
</clipPath>
</defs>
<g id="surface1">
<g clip-path="url(#clip1)" clip-rule="nonzero">
<path style=" stroke:none;fill-rule:nonzero;fill:rgb(100%,100%,100%);fill-opacity:1;" d="M 132.824219 191.488281 L 98.667969 183.894531 L 98.667969 180.058594 L 98.925781 179.96875 L 98.90625 178.976563 L 121.476563 184.089844 C 122.203125 184.253906 122.929688 184.335938 123.648438 184.335938 C 127.96875 184.335938 131.898438 181.457031 133.078125 177.121094 L 148.347656 121.054688 L 148.292969 120.929688 L 151.109375 120.320313 L 132.824219 191.488281 "/>
</g>
<g clip-path="url(#clip2)" clip-rule="nonzero">
<path style=" stroke:none;fill-rule:nonzero;fill:rgb(100%,100%,100%);fill-opacity:1;" d="M 49.105469 120.933594 L 46.574219 120.335938 L 46.601563 120.445313 L 46.21875 120.351563 L 98.664063 0.00390625 L 98.664063 15.078125 C 96.214844 15.09375 93.886719 16.535156 92.855469 18.929688 L 49.105469 120.933594 "/>
</g>
<g clip-path="url(#clip3)" clip-rule="nonzero">
<path style=" stroke:none;fill-rule:nonzero;fill:rgb(100%,100%,100%);fill-opacity:1;" d="M 72.75 189.3125 L 64.15625 186.703125 L 46.601563 120.445313 L 46.574219 120.335938 L 49.105469 120.933594 L 49.054688 121.054688 L 64.324219 177.121094 C 65.503906 181.457031 69.433594 184.335938 73.753906 184.335938 C 74.46875 184.335938 75.199219 184.253906 75.921875 184.089844 L 98.699219 178.929688 L 98.90625 178.976563 L 98.925781 179.96875 L 98.667969 180.058594 L 72.75 189.3125 "/>
</g>
<path style=" stroke:none;fill-rule:nonzero;fill:rgb(100%,100%,100%);fill-opacity:1;" d="M 98.804688 174.152344 L 98.699219 169.285156 L 98.699219 131.640625 L 144.375 121.777344 L 144.800781 121.710938 L 102.246094 135.523438 L 98.804688 174.152344 "/>
<path style=" stroke:none;fill-rule:nonzero;fill:rgb(100%,100%,100%);fill-opacity:1;" d="M 98.699219 175.3125 L 98.699219 169.285156 L 98.804688 174.152344 L 98.699219 175.3125 "/>
<path style=" stroke:none;fill-rule:nonzero;fill:rgb(100%,100%,100%);fill-opacity:1;" d="M 98.699219 169.285156 L 98.667969 167.769531 L 98.667969 131.648438 L 98.699219 131.640625 L 98.699219 169.285156 "/>
<path style=" stroke:none;fill-rule:nonzero;fill:rgb(100%,100%,100%);fill-opacity:1;" d="M 98.664063 132.824219 L 97.921875 132.644531 L 97.917969 132.421875 L 53.109375 121.875 L 52.601563 121.710938 L 95.15625 128.289063 L 98.664063 24.445313 L 98.664063 132.824219 "/>
<path style=" stroke:none;fill-rule:nonzero;fill:rgb(100%,100%,100%);fill-opacity:1;" d="M 98.699219 175.3125 L 95.15625 135.523438 L 53.109375 121.875 L 97.917969 132.421875 L 97.921875 132.644531 L 98.667969 167.769531 L 98.699219 169.285156 L 98.699219 175.3125 "/>
<path style=" stroke:none;fill-rule:nonzero;fill:rgb(96.899414%,74.899292%,13.299561%);fill-opacity:1;" d="M 102.246094 128.289063 L 98.699219 23.390625 L 98.664063 24.445313 L 98.664063 15.078125 C 98.679688 15.078125 98.691406 15.078125 98.703125 15.078125 C 99.539063 15.078125 100.390625 15.242188 101.207031 15.59375 C 102.707031 16.238281 103.902344 17.433594 104.546875 18.929688 L 148.292969 120.929688 L 144.375 121.777344 L 102.246094 128.289063 "/>
<path style=" stroke:none;fill-rule:nonzero;fill:rgb(95.298767%,59.199524%,36.499023%);fill-opacity:1;" d="M 123.648438 184.335938 C 122.929688 184.335938 122.203125 184.253906 121.476563 184.089844 L 98.90625 178.976563 L 98.804688 174.152344 L 102.246094 135.523438 L 144.800781 121.710938 L 144.375 121.777344 L 148.292969 120.929688 L 148.347656 121.054688 L 133.078125 177.121094 C 131.898438 181.457031 127.96875 184.335938 123.648438 184.335938 M 98.699219 169.285156 L 98.699219 131.640625 L 98.699219 169.285156 "/>
<path style=" stroke:none;fill-rule:nonzero;fill:rgb(54.899597%,78.399658%,48.199463%);fill-opacity:1;" d="M 95.15625 128.289063 L 52.601563 121.710938 L 53.109375 121.875 L 49.105469 120.933594 L 92.855469 18.929688 C 93.886719 16.535156 96.214844 15.09375 98.664063 15.078125 L 98.664063 24.445313 L 95.15625 128.289063 "/>
<path style=" stroke:none;fill-rule:nonzero;fill:rgb(59.999084%,49.398804%,72.898865%);fill-opacity:1;" d="M 73.753906 184.335938 C 69.433594 184.335938 65.503906 181.457031 64.324219 177.121094 L 49.054688 121.054688 L 49.105469 120.933594 L 53.109375 121.875 L 95.15625 135.523438 L 98.699219 175.3125 L 98.699219 169.285156 L 98.699219 175.3125 L 98.804688 174.152344 L 98.90625 178.976563 L 98.699219 178.929688 L 75.921875 184.089844 C 75.199219 184.253906 74.46875 184.335938 73.753906 184.335938 "/>
<path style=" stroke:none;fill-rule:nonzero;fill:rgb(0%,69.398499%,90.19928%);fill-opacity:1;" d="M 52.542969 157.226563 L 42.140625 120.355469 L 56.089844 88.574219 L 5.808594 60.746094 C 3.917969 59.703125 1.535156 60.386719 0.488281 62.277344 C -0.171875 63.472656 -0.164063 64.925781 0.515625 66.113281 L 52.542969 157.226563 "/>
<path style=" stroke:none;fill-rule:nonzero;fill:rgb(75.299072%,76.098633%,79.598999%);fill-opacity:1;" d="M 192 96.734375 L 207.757813 104.253906 C 209.222656 104.949219 210.972656 104.328125 211.671875 102.867188 C 212.074219 102.019531 212.050781 101.027344 211.597656 100.199219 L 197.882813 75 L 192 96.734375 "/>
<path style=" stroke:none;fill-rule:nonzero;fill:rgb(93.699646%,38.798523%,55.699158%);fill-opacity:1;" d="M 141.078125 88.605469 L 155.28125 120.925781 L 144.785156 156.929688 L 196.824219 75.050781 L 172.371094 75.050781 L 141.078125 88.605469 "/>
<g clip-path="url(#clip4)" clip-rule="nonzero">
<path style=" stroke:none;fill-rule:nonzero;fill:rgb(25.498962%,32.199097%,37.298584%);fill-opacity:1;" d="M 674.507813 81.414063 L 674.507813 63.050781 L 657.890625 63.046875 L 657.878906 42.328125 L 636.765625 42.328125 L 636.746094 130.796875 C 636.746094 147.871094 650.332031 161.738281 667.042969 161.738281 L 674.507813 161.738281 L 674.507813 141.984375 L 667.058594 141.984375 C 661.992188 141.984375 657.890625 137.789063 657.890625 132.617188 L 657.890625 81.414063 Z M 305.757813 61.6875 C 298.695313 61.6875 292.398438 63.433594 286.980469 66.949219 L 286.980469 63.050781 L 265.847656 63.050781 L 265.847656 208.441406 L 286.980469 208.441406 L 286.980469 157.644531 C 292.386719 160.402344 298.5625 161.738281 305.425781 161.738281 C 315.5625 161.738281 324.027344 158 330.496094 150.503906 C 338.269531 141.433594 341.84375 127.566406 341.84375 110.609375 C 341.84375 94.328125 337.9375 81.363281 329.578125 72.320313 C 323.0625 65.285156 315.058594 61.6875 305.757813 61.6875 Z M 314.546875 137.222656 C 312.132813 140.707031 308.332031 142.691406 302.429688 142.691406 C 295.121094 142.691406 290.191406 140.414063 286.980469 136.265625 L 286.980469 89.605469 C 290.804688 83.949219 296.398438 81.074219 304.257813 81.074219 C 313.460938 81.074219 319.710938 88.734375 319.710938 111.289063 C 319.710938 124.03125 317.742188 132.75 314.546875 137.222656 Z M 596.601563 61.511719 C 576.664063 61.511719 557.867188 71.375 557.890625 96.296875 L 557.914063 128.125 C 557.914063 150.140625 569.089844 161.84375 590.421875 161.84375 C 601.902344 161.84375 610.175781 159.101563 620.246094 153.804688 L 612.675781 135.578125 C 605.566406 140.417969 600.867188 142.8125 591.925781 142.8125 C 583.101563 142.8125 579.050781 138.71875 579.050781 128.808594 L 579.050781 122.5 C 583.40625 123.648438 588.5625 124.175781 594.429688 124.175781 C 603.664063 124.175781 611.722656 121.597656 618.414063 116.277344 C 625.964844 110.363281 629.773438 102.332031 629.773438 92.503906 C 629.773438 71.71875 615.679688 61.511719 596.601563 61.511719 Z M 592.089844 105.652344 C 586.652344 105.652344 582.351563 105.023438 579.050781 103.898438 L 579.074219 93.191406 C 579.09375 84.449219 584.921875 80.203125 594.261719 80.203125 C 604.226563 80.203125 607.808594 84.066406 607.808594 91.480469 C 607.808594 101.011719 603.300781 105.652344 592.089844 105.652344 Z M 387.390625 61.6875 C 375.949219 61.6875 367.691406 64.425781 357.640625 69.703125 L 365.199219 87.890625 C 372.28125 83.0625 376.980469 80.671875 385.890625 80.671875 C 394.695313 80.671875 398.742188 84.753906 398.742188 94.640625 L 398.742188 100.929688 C 394.390625 99.785156 389.246094 99.257813 383.398438 99.257813 C 374.1875 99.257813 366.152344 101.832031 359.480469 107.136719 C 351.945313 113.035156 348.140625 121.046875 348.140625 130.855469 C 348.140625 151.585938 362.199219 161.761719 381.230469 161.761719 C 388.445313 161.761719 394.769531 160.015625 400.070313 156.410156 C 400.671875 157.84375 401.566406 159.007813 402.496094 160.234375 L 419.816406 160.234375 L 419.816406 95.320313 C 419.816406 73.363281 408.667969 61.6875 387.390625 61.6875 Z M 398.742188 136.039063 C 393.871094 140.925781 388.828125 143.121094 383.566406 143.121094 C 373.621094 143.121094 370.054688 139.269531 370.054688 131.871094 C 370.054688 122.367188 374.546875 117.734375 385.722656 117.734375 C 391.148438 117.734375 395.445313 118.359375 398.742188 119.488281 Z M 541.214844 132.617188 L 541.207031 14.984375 L 520.097656 14.984375 L 520.078125 130.796875 C 520.078125 147.871094 533.664063 161.738281 550.378906 161.738281 L 550.386719 141.984375 C 545.324219 141.984375 541.214844 137.789063 541.214844 132.617188 Z M 484.984375 65.777344 C 479.585938 63.027344 473.402344 61.6875 466.546875 61.6875 C 456.402344 61.6875 447.933594 65.429688 441.472656 72.925781 C 433.703125 81.996094 430.125 95.859375 430.125 112.816406 C 430.125 129.097656 434.027344 142.0625 442.390625 151.109375 C 448.898438 158.140625 456.902344 161.738281 466.214844 161.738281 C 473.269531 161.738281 479.5625 159.996094 484.984375 156.480469 L 484.984375 160.378906 L 506.121094 160.378906 L 506.121094 14.984375 L 484.984375 14.984375 Z M 484.984375 133.824219 C 481.160156 139.480469 475.570313 142.351563 467.707031 142.351563 C 458.511719 142.351563 452.257813 134.695313 452.257813 112.136719 C 452.257813 99.394531 454.226563 90.679688 457.417969 86.203125 C 459.835938 82.71875 463.636719 80.730469 469.535156 80.730469 C 476.839844 80.730469 481.777344 83.015625 484.984375 87.160156 L 484.984375 133.824219 "/>
</g>
</g>
</svg>
