<?xml version="1.0" encoding="UTF-8"?><svg xmlns="http://www.w3.org/2000/svg" xmlns:xlink="http://www.w3.org/1999/xlink" width="674.51pt" height="208.44pt" viewBox="0 0 674.51 208.44" version="1.1"><defs><clipPath id="clip1"><path d="m98 120h53.2v71.54H98zm0 0"/></clipPath><clipPath id="clip2"><path d="m46.2.04H99V121h-52.8zm0 0"/></clipPath><clipPath id="clip3"><path d="m46.2 120H99v70h-52.8zm0 0"/></clipPath><clipPath id="clip4"><path d="m265 14h409.51v194.44H265zm0 0"/></clipPath></defs><g id="surface1"><g clip-path="url(#clip1)" clip-rule="nonzero"><path style=" stroke:none;fill-rule:nonzero;fill:rgb(100%,100%,100%);fill-opacity:1;" d="m132.82 191.49l-34.15-7.6v-3.83l.26-.09l-.02-.99l22.57 5.11c.72.16 1.45.25 2.17.25c4.32 0 8.25-2.88 9.43-7.22l15.27-56.07l-.06-.12l2.82-.61l-18.29 71.17"/></g><g clip-path="url(#clip2)" clip-rule="nonzero"><path style=" stroke:none;fill-rule:nonzero;fill:rgb(100%,100%,100%);fill-opacity:1;" d="m49.11 120.93l-2.54-.59l.03.11l-.38-.1l52.44-120.35v15.08c-2.45.01-4.77 1.46-5.8 3.85l-43.75 102"/></g><g clip-path="url(#clip3)" clip-rule="nonzero"><path style=" stroke:none;fill-rule:nonzero;fill:rgb(100%,100%,100%);fill-opacity:1;" d="m72.75 189.31l-8.59-2.61l-17.56-66.25l-.03-.11l2.54.59l-.06.12l15.27 56.07c1.18 4.34 5.11 7.22 9.43 7.22c.72 0 1.45-.09 2.17-.25l22.78-5.16l.21.05l.02.99l-.26.09l-25.92 9.25"/></g><path style=" stroke:none;fill-rule:nonzero;fill:rgb(100%,100%,100%);fill-opacity:1;" d="m98.8 174.15l-.1-4.86v-37.65l45.67-9.86l.43-.07l-42.55 13.81l-3.45 38.63"/><path style=" stroke:none;fill-rule:nonzero;fill:rgb(100%,100%,100%);fill-opacity:1;" d="m98.7 175.31v-6.02l.1 4.86l-.1 1.16"/><path style=" stroke:none;fill-rule:nonzero;fill:rgb(100%,100%,100%);fill-opacity:1;" d="m98.7 169.29l-.03-1.52v-36.12l.03-.01v37.65"/><path style=" stroke:none;fill-rule:nonzero;fill:rgb(100%,100%,100%);fill-opacity:1;" d="m98.66 132.82l-.74-.18v-.22l-44.81-10.54l-.51-.17l42.56 6.58l3.5-103.84v108.37"/><path style=" stroke:none;fill-rule:nonzero;fill:rgb(100%,100%,100%);fill-opacity:1;" d="m98.7 175.31l-3.54-39.79l-42.05-13.65l44.81 10.55v.22l.75 35.13l.03 1.52v6.02"/><path style=" stroke:none;fill-rule:nonzero;fill:rgb(96.899414%,74.899292%,13.299561%);fill-opacity:1;" d="m102.25 128.29l-3.55-104.9l-.04 1.06v-9.37h.04c.84 0 1.69.16 2.51.51c1.5.65 2.69 1.84 3.34 3.34l43.74 102l-3.91.85l-42.13 6.51"/><path style=" stroke:none;fill-rule:nonzero;fill:rgb(95.298767%,59.199524%,36.499023%);fill-opacity:1;" d="m123.65 184.34c-.72 0-1.45-.09-2.17-.25l-22.57-5.11l-.11-4.83l3.45-38.63l42.55-13.81l-.43.07l3.92-.85l.06.12l-15.27 56.07c-1.18 4.34-5.11 7.22-9.43 7.22m-24.95-15.05v-37.65v37.65"/><path style=" stroke:none;fill-rule:nonzero;fill:rgb(54.899597%,78.399658%,48.199463%);fill-opacity:1;" d="m95.16 128.29l-42.56-6.58l.51.17l-4-.95l43.75-102c1.03-2.39 3.35-3.84 5.8-3.85v9.37l-3.5 103.84"/><path style=" stroke:none;fill-rule:nonzero;fill:rgb(59.999084%,49.398804%,72.898865%);fill-opacity:1;" d="m73.75 184.34c-4.32 0-8.25-2.88-9.43-7.22l-15.27-56.07l.06-.12l4 .94l42.05 13.65l3.54 39.79v-6.02v6.02l.1-1.16l.11 4.83l-.21-.05l-22.78 5.16c-.72.16-1.45.25-2.17.25"/><path style=" stroke:none;fill-rule:nonzero;fill:rgb(0%,69.398499%,90.19928%);fill-opacity:1;" d="m52.54 157.23l-10.4-36.87l13.95-31.79l-50.28-27.82c-1.89-1.05-4.27-.36-5.32 1.53c-.66 1.19-.65 2.65.03 3.83l52.02 91.12"/><path style=" stroke:none;fill-rule:nonzero;fill:rgb(75.299072%,76.098633%,79.598999%);fill-opacity:1;" d="m192 96.73l15.76 7.52c1.46.7 3.21.08 3.91-1.38c.4-.85.38-1.84-.07-2.67L197.883 75l-5.88 21.73"/><path style=" stroke:none;fill-rule:nonzero;fill:rgb(93.699646%,38.798523%,55.699158%);fill-opacity:1;" d="m141.08 88.61l14.2 32.32l-10.49 36l52.03-81.88h-24.45l-31.29 13.56"/><g clip-path="url(#clip4)" clip-rule="nonzero"><path style=" stroke:none;fill-rule:nonzero;fill:rgb(25.498962%,32.199097%,37.298584%);fill-opacity:1;" d="m674.51 81.41v-18.36h-16.62l-.01-20.72h-21.11l-.02 88.47c0 17.07 13.58 30.94 30.29 30.94h7.47v-19.76h-7.45c-5.07 0-9.17-4.19-9.17-9.36v-51.21zm-368.75-19.72c-7.06 0-13.36 1.74-18.78 5.26v-3.9h-21.13v145.39h21.13v-50.8c5.41 2.76 11.58 4.1 18.45 4.1c10.13 0 18.6-3.74 25.07-11.24c7.77-9.07 11.34-22.93 11.34-39.89c0-16.28-3.9-29.25-12.26-38.29c-6.52-7.03-14.52-10.63-23.82-10.63zm8.79 75.53c-2.42 3.49-6.22 5.47-12.12 5.47c-7.31 0-12.24-2.28-15.45-6.42v-46.66c3.82-5.66 9.42-8.54 17.28-8.54c9.2 0 15.45 7.66 15.45 30.22c0 12.74-1.97 21.46-5.16 25.93zm282.05-75.71c-19.94 0-38.73 9.87-38.71 34.79l.02 31.83c0 22.01 11.18 33.71 32.51 33.71c11.48 0 19.76-2.74 29.83-8.04l-7.57-18.22c-7.11 4.84-11.81 7.23-20.75 7.23c-8.83 0-12.88-4.09-12.88-14v-6.31c4.36 1.15 9.51 1.68 15.38 1.68c9.23 0 17.29-2.58 23.98-7.9c7.55-5.92 11.36-13.95 11.36-23.78c0-20.78-14.09-30.99-33.17-30.99zm-4.51 44.14c-5.44 0-9.74-.63-13.04-1.75l.02-10.71c.02-8.74 5.85-12.99 15.19-12.99c9.97 0 13.55 3.87 13.55 11.28c0 9.53-4.51 14.17-15.72 14.17zm-204.7-43.96c-11.44 0-19.7 2.74-29.75 8.01l7.56 18.19c7.08-4.83 11.78-7.22 20.69-7.22c8.81 0 12.85 4.08 12.85 13.97v6.29c-4.35-1.14-9.49-1.67-15.34-1.67c-9.21 0-17.25 2.57-23.92 7.88c-7.53 5.9-11.34 13.91-11.34 23.72c0 20.73 14.06 30.9 33.09 30.9c7.22 0 13.54-1.74 18.84-5.35c.6 1.43 1.5 2.6 2.43 3.82h17.32v-64.91c0-21.96-11.15-33.63-32.43-33.63zm11.35 74.35c-4.87 4.89-9.91 7.08-15.17 7.08c-9.95 0-13.52-3.85-13.52-11.25c0-9.5 4.5-14.14 15.67-14.14c5.43 0 9.73.63 13.02 1.76zm142.47-3.42v-117.64h-21.11l-.02 115.82c0 17.07 13.58 30.94 30.3 30.94l.01-19.76c-5.07 0-9.18-4.19-9.18-9.36zm-56.23-66.84c-5.39-2.75-11.58-4.09-18.43-4.09c-10.15 0-18.62 3.74-25.08 11.24c-7.77 9.07-11.35 22.93-11.35 39.89c0 16.28 3.91 29.24 12.27 38.29c6.51 7.03 14.51 10.63 23.82 10.63c7.06 0 13.35-1.74 18.77-5.26v3.9h21.14v-145.4h-21.14zm0 68.04c-3.82 5.66-9.41 8.53-17.27 8.53c-9.2 0-15.45-7.65-15.45-30.21c0-12.75 1.97-21.46 5.16-25.94c2.42-3.48 6.22-5.47 12.12-5.47c7.3 0 12.24 2.29 15.44 6.43v46.66"/></g></g></svg>